<svg xmlns="http://www.w3.org/2000/svg" viewBox="0 0 1000 618" width="100" height="32">
  <circle cx="363" cy="309" r="256" fill="#D9222A" />
  <circle cx="637" cy="309" r="256" fill="#EE9F2D" />
  <path d="M500,161.2c90.8,67.4,149.3,180.5,143,302.4c-0.4,8.2-1.1,16.3-2.1,24.4c-24.6,189.9-198.7,323.9-388.3,299.3   c-126.4-16.4-233.4-101.1-277.9-218.7C-128.5,292.4,38.9,13.1,312.1,4.1c8.2-0.3,16.3-0.3,24.5,0c123.9,5.4,236.7,72.7,302.9,175.7     c45.1-31.8,85.4-69.7,119.7-112.1l10.3-14C684.4,0.1,569.3-14.9,458.2,13.5c-8.2,2.1-16.3,4.5-24.3,7.1     C246.5,73.9,112.2,240.5,118,438.8c0.4,11.9,1.4,23.8,3.1,35.6c34.5,237.6,256.1,401.7,493.6,366.4c86.2-12.8,167.1-55.4,230.1-120.9     L855.6,709C695.3,859.9,446,873.7,271.8,737.5c-4.6-3.6-9.1-7.3-13.5-11.1c-142.1-122-155.8-336.2-32.5-476.4     c55.9-63.5,134.3-102.7,218.8-109.1c5.1-0.4,10.1-0.7,15.2-0.8C465.2,138.5,483.1,146.9,500,161.2z" fill="#000000" fill-opacity="0.2" />
</svg> 