<svg xmlns="http://www.w3.org/2000/svg" viewBox="0 0 1000 324" width="100" height="32">
  <path d="M651.3,0 L348.1,0 C304.5,0 268.6,14.9 268.6,65.2 L268.6,258.8 C268.6,309.1 304.5,324 348.1,324 L651.3,324 C694.9,324 730.8,309.1 730.8,258.8 L730.8,65.2 C730.8,14.9 694.9,0 651.3,0" fill="#172B85" />
  <path d="M321.2,212.8 L373.9,110.9 L405.3,110.9 L453.3,212.8 L422.2,212.8 L414.6,196 L365.2,196 L357.6,212.8 L321.2,212.8 Z M374.3,174.5 L404.7,174.5 L389.8,139.9 L374.3,174.5 Z" fill="#FFFFFF" />
  <path d="M467.7,212.8 L467.7,110.9 L528.8,110.9 C547.9,110.9 563.9,122.2 563.9,139.9 C563.9,156.1 550.9,166 536.4,167.4 C551.5,168.2 567,178.7 567,196.4 C567,209.1 556.7,212.8 545.4,212.8 L467.7,212.8 Z M498.5,151.4 L522.5,151.4 C528.8,151.4 533.6,147.7 533.6,141.9 C533.6,136.2 528.8,132.4 522.5,132.4 L498.5,132.4 L498.5,151.4 Z M498.5,191.3 L522.5,191.3 C529.4,191.3 535.7,188.2 535.7,181.3 C535.7,174.5 529.4,172 522.5,172 L498.5,172 L498.5,191.3 Z" fill="#FFFFFF" />
  <path d="M624.3,110.9 L583.6,110.9 L583.6,212.8 L624.3,212.8 C661.9,212.8 682.4,188.2 682.4,161.8 C682.4,135.5 661.9,110.9 624.3,110.9 M624.7,191.3 L614.9,191.3 L614.9,132.4 L624.7,132.4 C646.2,132.4 651,149.6 651,161.8 C651,174.5 646.2,191.3 624.7,191.3" fill="#FFFFFF" />
</svg> 